<svg xmlns="http://www.w3.org/2000/svg" xmlns:xlink="http://www.w3.org/1999/xlink" width="500" zoomAndPan="magnify" viewBox="0 0 375 374.999991" height="500" preserveAspectRatio="xMidYMid meet" version="1.2"><defs><clipPath id="a6e7a1fdc5"><path d="M 40.449219 101.476562 L 334 101.476562 L 334 273.226562 L 40.449219 273.226562 Z M 40.449219 101.476562 "/></clipPath></defs><g id="a36c3544d6"><rect x="0" width="375" y="0" height="374.999991" style="fill:#ffffff;fill-opacity:1;stroke:none;"/><rect x="0" width="375" y="0" height="374.999991" style="fill:#ff4b00;fill-opacity:1;stroke:none;"/><g clip-rule="nonzero" clip-path="url(#a6e7a1fdc5)"><path style=" stroke:none;fill-rule:nonzero;fill:#000000;fill-opacity:1;" d="M 328.039062 101.476562 L 299.308594 101.476562 C 295.640625 101.476562 293.402344 103.460938 292.65625 106.878906 L 264.179688 221.625 L 235.699219 106.878906 C 234.953125 103.460938 232.777344 101.476562 229.046875 101.476562 L 205.234375 101.476562 C 200.816406 101.476562 198.828125 103.960938 200.070312 108.367188 L 207.84375 136.621094 L 185.085938 221.6875 L 156.609375 106.941406 C 155.863281 103.523438 153.6875 101.539062 149.957031 101.539062 L 112.585938 101.539062 C 131.921875 107.871094 147.21875 123.085938 149.332031 149.101562 C 149.582031 153.261719 147.09375 155.496094 143.179688 155.496094 L 116.191406 155.496094 C 112.523438 155.496094 110.535156 153.511719 109.789062 149.597656 C 107.796875 140.53125 101.457031 136.371094 90.140625 136.371094 C 77.828125 136.371094 72.230469 142.519531 72.230469 149.597656 C 72.230469 159.90625 82.304688 164.8125 96.542969 169.964844 C 121.105469 178.535156 154.496094 187.351562 154.496094 225.164062 C 154.496094 250.625 139.324219 266.644531 118.121094 273.226562 L 198.332031 273.226562 C 201.75 273.226562 204.238281 271.734375 205.234375 268.070312 L 224.632812 197.65625 L 244.03125 268.070312 C 245.027344 271.734375 247.453125 273.226562 250.933594 273.226562 L 282.398438 273.226562 C 285.816406 273.226562 288.304688 271.734375 289.300781 268.070312 L 333.261719 108.429688 C 334.441406 103.898438 332.453125 101.476562 328.039062 101.476562 Z M 88.023438 205.417969 C 71.113281 199.582031 51.089844 193 40.457031 176.792969 L 52.085938 219.140625 L 63.898438 219.140625 C 67.566406 219.140625 69.558594 221.128906 70.304688 225.042969 C 72.292969 233.859375 79.628906 238.265625 94.117188 238.265625 C 110.097656 238.265625 115.257812 232.121094 115.257812 225.042969 C 115.257812 214.980469 103.011719 210.574219 88.023438 205.417969 Z M 88.023438 205.417969 "/></g></g></svg>